<?xml version="1.0" encoding="UTF-8"?>
<svg version="1.1" xmlns="http://www.w3.org/2000/svg" width="40" height="40">
<path d="M0 0 C1.42479222 4.27437665 1.79656325 8.27411296 -0.125 12.4375 C-1.12904013 15.37790324 -0.80736058 16.23073662 0.0625 19.125 C0.371875 20.40375 0.68125 21.6825 1 23 C-0.375 25 -0.375 25 -2 26 C-5 25 -5 25 -6.1875 23.125 C-7 21 -7 21 -7 18 C-7.66 18 -8.32 18 -9 18 C-9.66 20.31 -10.32 22.62 -11 25 C-12.32 25 -13.64 25 -15 25 C-17.49037363 22.50962637 -16.28242988 15.96879693 -16.3125 12.625 C-16.34150391 11.55765625 -16.37050781 10.4903125 -16.40039062 9.390625 C-16.41295898 7.85535156 -16.41295898 7.85535156 -16.42578125 6.2890625 C-16.44036377 5.34756348 -16.45494629 4.40606445 -16.4699707 3.43603516 C-16 1 -16 1 -14.09448242 -0.78369141 C-8.92168031 -3.78764293 -4.96428369 -3.30952246 0 0 Z M-9 5 C-9 6.32 -9 7.64 -9 9 C-8.01 8.67 -7.02 8.34 -6 8 C-6.33 7.01 -6.66 6.02 -7 5 C-7.66 5 -8.32 5 -9 5 Z " fill="#A65998" transform="translate(36,7)"/>
<path d="M0 0 C-0.1875 2.3125 -0.1875 2.3125 -1 5 C-3.5 6.75 -3.5 6.75 -6 8 C-6.33 8.33 -6.66 8.66 -7 9 C-5.35 9 -3.7 9 -2 9 C-1.67 10.32 -1.34 11.64 -1 13 C-2.98 14.32 -4.96 15.64 -7 17 C-6.34 17 -5.68 17 -5 17 C-3.33034549 17.31802943 -1.66321482 17.64984951 0 18 C0 19.65 0 21.3 0 23 C-2.92478077 24.63137772 -5.78121103 26.05113876 -9 27 C-12.5 26 -12.5 26 -15 24 C-17.21717176 17.67294887 -16.78659911 9.76526171 -14.1796875 3.6328125 C-12.28667731 1.01268581 -10.0477937 0.20650628 -7.0078125 -0.6796875 C-4.45002225 -1.08773964 -2.44379683 -0.84005516 0 0 Z " fill="#A75894" transform="translate(19,5)"/>
<path d="M0 0 C1.42479222 4.27437665 1.79656325 8.27411296 -0.125 12.4375 C-1.12904013 15.37790324 -0.80736058 16.23073662 0.0625 19.125 C0.371875 20.40375 0.68125 21.6825 1 23 C-0.375 25 -0.375 25 -2 26 C-5 25 -5 25 -6.1875 23.125 C-7 21 -7 21 -7 18 C-6.34 18 -5.68 18 -5 18 C-5.33 16.35 -5.66 14.7 -6 13 C-5.01 12.34 -4.02 11.68 -3 11 C-5.31 10.67 -7.62 10.34 -10 10 C-10 8.35 -10 6.7 -10 5 C-9.67 6.32 -9.34 7.64 -9 9 C-8.34 8.67 -7.68 8.34 -7 8 C-5.91240913 3.90607154 -5.91240913 3.90607154 -7 0 C-7.99 -0.33 -8.98 -0.66 -10 -1 C-10 -0.34 -10 0.32 -10 1 C-11.65 1 -13.3 1 -15 1 C-10.4803501 -4.19759739 -5.50805347 -3.67203565 0 0 Z " fill="#AF73A3" transform="translate(36,7)"/>
<path d="M0 0 C-0.1875 2.3125 -0.1875 2.3125 -1 5 C-3.5 6.75 -3.5 6.75 -6 8 C-6.33 8.33 -6.66 8.66 -7 9 C-5.35 9 -3.7 9 -2 9 C-1.67 10.32 -1.34 11.64 -1 13 C-6.41538462 17.06153846 -6.41538462 17.06153846 -9.375 16.75 C-9.91125 16.5025 -10.4475 16.255 -11 16 C-10.01 15.67 -9.02 15.34 -8 15 C-8.66 11.04 -9.32 7.08 -10 3 C-10.99 2.67 -11.98 2.34 -13 2 C-4.738041 -1.62870159 -4.738041 -1.62870159 0 0 Z " fill="#B176A7" transform="translate(19,5)"/>
<path d="M0 0 C0 1.65 0 3.3 0 5 C-8.03501094 9.23632385 -8.03501094 9.23632385 -12.0625 8.25 C-12.701875 7.8375 -13.34125 7.425 -14 7 C-14 6.67 -14 6.34 -14 6 C-11.69 6 -9.38 6 -7 6 C-7 5.34 -7 4.68 -7 4 C-8.65 3.67 -10.3 3.34 -12 3 C-12 2.34 -12 1.68 -12 1 C-7.58774263 -0.47075246 -4.51718381 -1.36884358 0 0 Z " fill="#B67DAA" transform="translate(19,23)"/>
<path d="M0 0 C0.99 0 1.98 0 3 0 C3 0.66 3 1.32 3 2 C3.66 2 4.32 2 5 2 C6.67357513 7.37305699 6.67357513 7.37305699 7 10 C5.625 12 5.625 12 4 13 C1 12 1 12 -0.1875 10.125 C-1 8 -1 8 -1 5 C-0.34 5 0.32 5 1 5 C0.67 3.35 0.34 1.7 0 0 Z " fill="#C18FB6" transform="translate(30,20)"/>
<path d="M0 0 C0.33 0 0.66 0 1 0 C1.33 6.93 1.66 13.86 2 21 C2.99 21 3.98 21 5 21 C5 19.02 5 17.04 5 15 C6.32 15 7.64 15 9 15 C9 15.66 9 16.32 9 17 C8.34 17 7.68 17 7 17 C6.34 19.31 5.68 21.62 5 24 C3.68 24 2.36 24 1 24 C0 23 0 23 -0.11352539 20.77514648 C-0.10828857 19.81680908 -0.10305176 18.85847168 -0.09765625 17.87109375 C-0.09443359 16.83662109 -0.09121094 15.80214844 -0.08789062 14.73632812 C-0.07951172 13.64771484 -0.07113281 12.55910156 -0.0625 11.4375 C-0.05798828 10.34501953 -0.05347656 9.25253906 -0.04882812 8.12695312 C-0.03699826 5.41791505 -0.02051543 2.70898401 0 0 Z " fill="#C89ABC" transform="translate(20,8)"/>
<path d="M0 0 C0.68707555 2.49064888 1 4.37886292 1 7 C1.99 6.01 2.98 5.02 4 4 C4.1875 6.3125 4.1875 6.3125 4 9 C3.5153125 9.45375 3.030625 9.9075 2.53125 10.375 C0.55039601 12.47713076 0.51862038 13.84303874 0.3125 16.6875 C0.21388672 17.89986328 0.21388672 17.89986328 0.11328125 19.13671875 C0.07589844 19.75160156 0.03851563 20.36648437 0 21 C-2.92135744 15.95718061 -2.70059083 10.41236052 -1.546875 4.79296875 C-1.08654137 3.17851293 -0.55152093 1.58562268 0 0 Z " fill="#C795BE" transform="translate(5,8)"/>
<path d="M0 0 C2.0625 0.4375 2.0625 0.4375 4 1 C3.34 3.31 2.68 5.62 2 8 C-0.31 7.67 -2.62 7.34 -5 7 C-5 5.35 -5 3.7 -5 2 C-4.67 3.32 -4.34 4.64 -4 6 C-3.34 5.67 -2.68 5.34 -2 5 C-1.6278958 3.67696283 -1.29369827 2.34262065 -1 1 C-0.67 0.67 -0.34 0.34 0 0 Z " fill="#BC76AE" transform="translate(31,10)"/>
<path d="M0 0 C0.99 0.33 1.98 0.66 3 1 C3 2.98 3 4.96 3 7 C2.01 7.495 2.01 7.495 1 8 C0.34 7.67 -0.32 7.34 -1 7 C-1.04254356 5.00045254 -1.04080783 2.99958364 -1 1 C-0.67 0.67 -0.34 0.34 0 0 Z " fill="#B071A1" transform="translate(32,25)"/>
<path d="M0 0 C0.66 0 1.32 0 2 0 C2.33292585 4.24480464 2.43885872 6.35542625 0 9.9375 C-0.66 10.618125 -1.32 11.29875 -2 12 C-1.85904936 10.3745692 -1.71207913 8.74965949 -1.5625 7.125 C-1.48128906 6.22007813 -1.40007813 5.31515625 -1.31640625 4.3828125 C-1 2 -1 2 0 0 Z " fill="#C69CBE" transform="translate(35,10)"/>
<path d="M0 0 C1.98 0.495 1.98 0.495 4 1 C4.33 2.32 4.66 3.64 5 5 C3.35 5.33 1.7 5.66 0 6 C-0.33 7.32 -0.66 8.64 -1 10 C-1 8.35 -1 6.7 -1 5 C-0.34 5 0.32 5 1 5 C0.67 3.35 0.34 1.7 0 0 Z " fill="#A25D94" transform="translate(26,6)"/>
<path d="M0 0 C-0.33 1.32 -0.66 2.64 -1 4 C-1 3.34 -1 2.68 -1 2 C-5.16224452 1.89958572 -5.16224452 1.89958572 -9.25 2.5625 C-11 3 -11 3 -13 2 C-4.738041 -1.62870159 -4.738041 -1.62870159 0 0 Z " fill="#C9A2C1" transform="translate(19,5)"/>
<path d="M0 0 C-2.38573379 1.89213369 -4.07175348 3.02391783 -7 4 C-9.6875 3.0625 -9.6875 3.0625 -12 2 C-12 1.67 -12 1.34 -12 1 C-7.95858806 0.36605303 -4.0934693 -0.12404452 0 0 Z " fill="#BF91B4" transform="translate(17,28)"/>
<path d="M0 0 C-1.8125 1.0625 -1.8125 1.0625 -4 2 C-4.99 1.67 -5.98 1.34 -7 1 C-7 1.66 -7 2.32 -7 3 C-8.65 3 -10.3 3 -12 3 C-8.30922209 -1.2443946 -5.30849083 -1.32712271 0 0 Z " fill="#CFAFCC" transform="translate(33,5)"/>
<path d="M0 0 C2 2 2 2 2 6 C3.32 6.33 4.64 6.66 6 7 C3.64561267 8.42944945 2.51967567 9.08661261 -0.25 8.625 C-0.8275 8.41875 -1.405 8.2125 -2 8 C-1.01 7.67 -0.02 7.34 1 7 C0.67 4.69 0.34 2.38 0 0 Z " fill="#BF8CB5" transform="translate(10,13)"/>
</svg>
